<?xml version="1.0" encoding="UTF-8" standalone="no"?>
<!DOCTYPE svg PUBLIC "-//W3C//DTD SVG 1.1//EN" "http://www.w3.org/Graphics/SVG/1.1/DTD/svg11.dtd">
<!--
2014-4-17: Created.
-->
<svg xmlns="http://www.w3.org/2000/svg">
<metadata>
Created by FontForge 20120731 at Thu Apr 17 15:43:00 2014
 By Caley Jack Steward
Created by Caley Jack Steward with FontForge 2.0 (http://fontforge.sf.net)
</metadata>
<defs>
<font id="fontcustom" horiz-adv-x="512">
  <font-face font-family="fontcustom" font-weight="500" font-stretch="normal" units-per-em="512" panose-1="2 0 6 3 0 0 0 0 0 0" ascent="448" descent="-64" bbox="-0.48669 -64.3075 512.61 448.307" underline-thickness="25.6" underline-position="-51.2" unicode-range="U+F102-F124"/>
    <missing-glyph/>
    <glyph glyph-name="uniF11B" unicode="" d="M512 448v-341h-244l-195 -98v98h-73v341h512z"/>
    <glyph glyph-name="uniF105" unicode="" horiz-adv-x="341" d="M170 448c100 0 171 -69 171 -167s-97 -123 -97 -223c0 -2 -146 0 -146 0c0 100 -98 123 -98 223c0 98 70 167 170 167zM98 -15v48h146v-48c0 -37 -36 -49 -73 -49s-73 12 -73 49z"/>
    <glyph glyph-name="uniF104" unicode="" d="M0 448h512v-65h-512v65zM0 230v65h512v-65h-512zM0 78v65h512v-65h-512z"/>
    <glyph glyph-name="uniF11F" unicode="" horiz-adv-x="325" d="M205 442c80 -21 130 -98 119 -179c-5 -37 -16 -72 -34 -104c-36 -67 -75 -133 -112 -199l-15 -24c-2 1 -86 149 -127 223c-18 33 -30 68 -35 105c-12 87 50 170 137 182c17 2 40 3 67 -4zM163 33c11 18 20 33 29 49c27 47 54 94 72 145c9 26 14 53 9 81 c-11 56 -63 95 -121 90c-56 -5 -101 -54 -102 -109c-1 -28 6 -54 18 -79c24 -49 51 -96 76 -144c6 -11 12 -21 19 -33zM106 287c0 32 26 57 57 57s56 -26 56 -57s-25 -57 -56 -57s-57 26 -57 57z"/>
    <glyph glyph-name="uniF120" unicode="" d="M340 362l172 -336h-512l127 210l85 -128zM107 320c-36 0 -64 29 -64 64s28 64 64 64s65 -29 65 -64s-29 -64 -65 -64z"/>
    <glyph glyph-name="uniF114" unicode="" d="M512 398c-19 -8 -39 -13 -60 -16c22 13 38 33 46 58c-20 -12 -43 -20 -67 -25c-19 21 -47 33 -77 33c-58 0 -105 -48 -105 -106c0 -8 1 -16 3 -24c-87 4 -164 47 -216 111c-9 -16 -15 -35 -15 -54c0 -37 19 -69 47 -88c-17 1 -33 6 -47 14v-2c0 -51 36 -93 84 -103 c-9 -2 -18 -4 -28 -4c-7 0 -14 1 -20 2c13 -42 53 -73 99 -74c-36 -28 -82 -45 -131 -45c-8 0 -17 1 -25 2c47 -30 102 -48 161 -48c193 0 299 161 299 301v14c20 15 38 33 52 54z"/>
    <glyph glyph-name="uniF121" unicode="" d="M442 448c47 0 70 -22 70 -70v-326c0 -48 -23 -69 -70 -69h-372c-47 0 -70 21 -70 69v326c0 48 23 70 70 70h372zM163 99l209 116l-209 117v-233z"/>
    <glyph glyph-name="uniF123" unicode="" horiz-adv-x="341" d="M274 448l67 -63l-208 -193l208 -193l-67 -63l-274 256z"/>
    <glyph glyph-name="uniF10C" unicode="" d="M6 220c-2 2 -3 4 -4 6s-2 4 -2 7v72c0 3 1 5 2 7s2 5 4 7s4 3 6 4s4 1 7 1h6c3 0 6 0 8 -1s4 -2 6 -4s3 -5 4 -7s2 -4 2 -7v-72c0 -3 -1 -5 -2 -7s-2 -4 -4 -6s-4 -3 -6 -4s-5 -2 -8 -2h-6c-3 0 -5 1 -7 2s-4 2 -6 4zM18 304v0v-70c0 -1 0 -2 1 -3s2 -1 3 -1h1 c1 0 2 0 3 1s1 2 1 3v70c0 1 0 2 -1 3s-2 1 -3 1h-1c-1 0 -2 0 -3 -1s-1 -2 -1 -3zM76 323c1 0 2 -1 2 -2v-87c0 -1 0 -2 1 -3s2 -1 3 -1h1c1 0 2 0 3 1s1 2 1 3v87c0 1 1 2 2 2h14c1 0 2 -1 2 -2v-88c0 -3 -1 -5 -2 -7s-2 -4 -4 -6s-4 -3 -6 -4s-4 -2 -7 -2h-6 c-3 0 -6 1 -8 2s-4 2 -6 4s-3 4 -4 6s-2 4 -2 7v88c0 1 1 2 2 2h14zM129 216c0 0 -1 0 -1 1v89h-11c-1 0 -2 0 -2 1v14c0 1 1 2 2 2h40c1 0 2 -1 2 -2v-14c0 -1 -1 -1 -2 -1h-11v-89c0 -1 -1 -2 -2 -2h-14zM206 267c0 -1 -1 -2 -2 -2h-16v-48c0 -1 -1 -2 -2 -2h-14 c-1 0 -1 1 -1 2v104c0 1 0 2 1 2h34c1 0 2 -1 2 -2v-14c0 -1 -1 -1 -2 -1h-18v-23h16c1 0 2 -1 2 -2v-14zM223 323h14c1 0 2 -1 2 -2v-104c0 -1 -1 -2 -2 -2h-14c-1 0 -2 1 -2 2v104c0 1 1 2 2 2zM253 323h40c1 0 2 -1 2 -2v-14c0 -1 -1 -1 -2 -1h-11v-89c0 -1 -1 -2 -2 -2 h-14l-2 1v1v89h-11c-1 0 -2 0 -2 1v14c0 1 1 2 2 2zM333 217c0 -1 -1 -2 -2 -2h-14l-1 1v1v89h-12c-1 0 -2 0 -2 1v14c0 1 1 2 2 2h41c1 0 2 -1 2 -2v-14c0 -1 -1 -1 -2 -1h-12v-89zM394 306v0h-18v-23h16c1 0 1 -1 1 -2v-14c0 -1 0 -2 -1 -2h-16v-32h18c1 0 2 -1 2 -2v-14 c0 -1 -1 -2 -2 -2h-34c-1 0 -2 1 -2 2v104c0 1 1 2 2 2h34c1 0 2 -1 2 -2v-14c0 -1 -1 -1 -2 -1zM452 269c-2 -3 -5 -5 -8 -7v-1l14 -44c0 -1 -1 -1 -1 -1s0 -1 -1 -1h-14c-1 0 -1 1 -2 1s-1 0 -1 1l-12 40v-40v0c0 -1 -1 -2 -2 -2h-13c-1 0 -2 1 -2 2v104c0 1 1 2 2 2h23 c3 0 6 0 8 -1s4 -3 6 -5s3 -4 4 -6s1 -4 1 -7v-25c0 -4 0 -7 -2 -10zM437 279v24c0 1 0 2 -1 3s-2 1 -3 1h-6v-32h6c1 0 2 1 3 2s1 1 1 2zM495 293c0 0 -1 0 -1 1v10c0 1 0 2 -1 3s-2 1 -3 1h-1c-1 0 -2 0 -3 -1s-1 -2 -1 -3v-14c0 -1 1 -2 1 -3s0 -2 1 -3l21 -15 c2 -1 3 -3 3 -4s1 -3 1 -5v-27c0 -3 -1 -5 -2 -7s-2 -4 -4 -6s-4 -3 -6 -4s-4 -2 -7 -2h-6c-3 0 -6 1 -8 2s-4 2 -6 4s-3 4 -4 6s-2 4 -2 7v15c0 1 1 3 2 3l14 4h1s1 -1 1 -2v-19c0 -1 0 -2 1 -3s2 -1 3 -1h1c1 0 2 0 3 1s1 2 1 3v21v3s-1 2 -2 3l-20 16c-2 1 -3 3 -4 4 s-1 3 -1 5v19c0 3 1 5 2 7s2 5 4 7s4 3 6 4s5 1 8 1h6c3 0 5 0 7 -1s4 -2 6 -4s3 -5 4 -7s2 -4 2 -7v-6c0 -1 -1 -2 -2 -2l-14 -4h-1zM2 361h208c1 0 1 0 1 1v4c0 1 -1 2 -2 2h-207c-1 0 -2 -1 -2 -2v-4c0 -1 1 -1 2 -1zM302 361h208c1 0 2 0 2 1v4c0 1 -1 2 -2 2h-208 c-1 0 -1 -1 -1 -2v-4c0 -1 0 -1 1 -1zM228 388c1 1 5 4 11 4s11 -2 17 -10c1 2 3 5 4 6c2 2 4 4 6 4v0c1 0 2 -1 2 -1c1 -1 1 -4 1 -5s-1 -5 -2 -7c-2 -3 -6 -4 -9 -4v-1c0 -1 -2 -6 -4 -11v0c1 1 2 1 3 2s6 3 8 3h1c1 -1 0 -3 -1 -6c-2 -4 -4 -9 -3 -10v0c1 0 4 2 5 3v0 c0 2 0 4 2 7c1 1 4 5 9 6c1 0 1 1 2 1c2 0 3 -1 4 -2s2 -4 -2 -8v0c-3 -3 -5 -5 -8 -6c1 -1 1 -1 3 -1h2c3 1 6 3 8 5v0l1 1l1 -1c0 -1 0 -1 -1 -2v-1c-1 -1 -4 -4 -8 -5c-2 -1 -3 -1 -5 -1c-1 0 -3 1 -4 1c-2 1 -2 2 -3 3c-2 -2 -6 -4 -9 -4c-1 0 -1 0 -2 1c-1 2 0 6 0 6 c1 2 1 4 2 5s1 4 1 4s-1 0 -3 -2l-1 -1c-2 -2 -4 -4 -5 -7v-1v0c-1 -3 -3 -5 -6 -5v0c0 1 -1 2 0 4c0 1 2 4 3 7c1 2 2 5 2 6c1 2 3 10 4 13l-3 3c-1 -3 -4 -11 -5 -13c0 -1 0 -1 -1 -3c-1 -3 -2 -6 -3 -8v-1c-1 -3 -2 -4 -4 -7c-3 -4 -7 -6 -8 -6h-1c-1 0 -2 0 -2 1 s0 1 1 1c4 2 5 4 6 6s7 22 8 24s2 8 3 9c0 1 1 1 2 1c-1 1 -5 4 -11 4c-3 0 -5 -1 -6 -3c-2 -2 -2 -5 -2 -8c1 -4 4 -7 7 -7c1 0 2 0 2 -1s-1 -1 -2 -1s-2 -1 -3 -1v0c-2 0 -5 0 -7 3c-1 1 -2 4 -2 7c0 4 3 9 5 10zM277 365c-2 -2 -5 -6 -4 -10l2 2l3 3s2 2 2 3s-1 2 -1 2 l-1 1s0 -1 -1 -1zM262 384c0 -1 -1 -3 -2 -5h2c2 0 2 4 2 5v0c0 1 1 3 0 3v0s-1 -1 -2 -3zM88 400l-8 -3l-7 17l9 4h4c2 0 2 -2 3 -3c1 -2 1 -4 -1 -5v0c2 0 4 -1 5 -3s0 -3 -1 -4s-2 -2 -4 -3zM86 407c1 0 1 0 1 -1v-2c0 -1 0 -1 -1 -1h-3l-1 3l2 1h2zM82 413c1 0 2 1 2 0 v-2c0 -1 0 -1 -1 -1h-2l-2 2zM100 405c-2 1 -3 3 -4 5l-4 11l6 2l4 -11c0 -1 0 -2 1 -2h2s2 0 2 1c1 1 -1 2 -1 3l-3 11l4 1l4 -11c1 -2 1 -4 0 -6s-3 -2 -5 -3s-4 -1 -6 -1zM123 411l-5 -1l-5 18l5 1zM141 416l-13 -4l-5 19l6 1l4 -14l7 2zM142 431l-4 -1l-1 4l13 3l1 -4 l-3 -1l3 -14l-6 -1zM177 423l-9 -2l-3 19l9 1c1 0 4 1 5 0s2 -1 2 -3s0 -4 -2 -5v0c2 0 4 -2 4 -4s0 -3 -1 -4s-3 -2 -5 -2zM177 429v-2h-2l-2 -1l-1 4h3h1s1 0 1 -1zM173 437c1 0 3 0 3 -1v-1s-1 -1 -2 -1h-2l-1 3h2zM192 425l6 1l-1 8l4 11l-5 -1l-2 -6l-4 6l-7 -1l8 -10z M223 428h-6l-1 18l14 1v-4l-8 -1v-3l6 1l1 -5h-6v-7zM242 429c-6 0 -9 4 -9 9c0 6 3 10 9 10s9 -3 9 -9c0 -5 -3 -10 -9 -10zM242 444c3 0 3 -4 3 -6s0 -5 -3 -5s-3 3 -3 5s0 6 3 6zM261 436v-7h-6l1 19h9c2 0 4 0 5 -1c2 -1 2 -3 2 -5s-1 -4 -3 -5l3 -8h-6l-3 7h-2z M261 444h3h1c1 0 1 -1 1 -2c0 -2 -2 -2 -3 -2h-2v4zM291 431c-2 -2 -4 -3 -7 -3l-8 1l1 19l7 -1c3 0 5 -1 7 -3s3 -4 3 -7c0 -2 -1 -4 -3 -6zM282 433l1 10v0c1 0 3 0 4 -1s0 -3 0 -4s0 -3 -1 -4c0 -1 0 -1 -1 -1h-2h-1zM313 433l6 -1l1 4l-6 1v3l8 -1v5l-13 1l-2 -18l5 -1z M331 433l-7 1l-1 -4l7 -1zM342 426c1 0 2 0 2 1s-1 2 -2 2c-3 1 -7 3 -6 7c0 2 1 3 3 4s3 1 5 1c3 -1 6 -3 7 -6l-5 -1c0 1 -2 3 -3 3s-2 0 -2 -1s1 -2 2 -2c2 -1 4 -1 5 -2c2 -1 2 -4 2 -6c-1 -4 -5 -5 -9 -4s-8 3 -8 7h6c0 -2 1 -3 3 -3zM368 421l-1 -4l-14 3l4 18l14 -3 l-1 -4l-8 2l-1 -3l7 -2l-1 -4l-7 2v-3zM379 421l-2 -7l-6 2l5 18l9 -3c2 0 4 -1 5 -2s1 -3 1 -5c-1 -2 -3 -4 -5 -4l2 -9l-7 2v8h-2zM381 429l2 -1c1 0 2 -1 2 -1v-1c0 -2 -2 -1 -3 -1h-2zM402 427l-5 -18l-5 1l5 18zM415 403l-13 4l6 18l13 -4l-1 -4l-8 2l-1 -2l6 -2l-1 -4 l-6 2l-1 -3l8 -3zM429 405c-3 2 -7 5 -5 9c1 2 1 3 3 3s4 1 6 0c3 -1 6 -4 6 -7h-5c0 1 -2 2 -3 3c-1 0 -2 1 -2 0s1 -2 2 -2c2 -1 3 -3 4 -4c1 -2 2 -3 1 -5c-2 -4 -6 -4 -10 -3s-6 4 -6 8l5 -1c0 -2 1 -2 3 -3c1 0 2 -1 2 0s0 2 -1 2zM465 393l-7 -2l-3 7l7 2zM57 398 l-3 -7l-7 2l3 7zM185 179c1 0 3 -2 3 -3v-2c0 -1 -2 -3 -3 -3h-183c-1 0 -2 2 -2 3v2c0 1 1 3 2 3h183zM512 176v-2c0 -1 -1 -3 -2 -3h-183c-1 0 -3 2 -3 3v2c0 1 2 3 3 3h183c1 0 2 -2 2 -3zM277 163l-7 1l11 -17l-21 2v-7h-8v7l-21 -2l11 17l-7 -1l12 19l-5 -2l11 18 l-6 -1l9 14l9 -14l-6 1l11 -18l-5 2zM311 168l-4 1l7 -12l-15 1v-4h-5v4l-15 -1l8 12l-5 -1l9 13l-4 -1l8 13l-5 -2l7 10l6 -10l-4 2l8 -13l-4 1zM225 169l8 -12l-15 1v-4h-5v4l-15 -1l7 12l-4 -1l8 13l-4 -1l8 13l-4 -2l6 10l7 -10l-5 2l8 -13l-4 1l9 -13z"/>
    <glyph glyph-name="uniF10A" unicode="" d="M512 375l-184 -184l179 -180l-70 -70l-180 179l-176 -176l-70 70l176 176l-187 187l71 71l187 -187l184 184z"/>
    <glyph glyph-name="uniF11A" unicode="" d="M110 350c20 0 37 -16 37 -36s-17 -37 -37 -37s-37 17 -37 37s17 36 37 36zM390 326h122v-390h-390v122h-122v390h390v-122zM121 228l49 -74l73 147l98 -194v292h-292v-292zM463 -15v293h-73v-220h-219v-73h292z"/>
    <glyph glyph-name="uniF106" unicode="" horiz-adv-x="394" d="M393 291c0 0 1 80 1 -38s-176 -317 -176 -317h-41s-177 198 -177 316v38s34 158 179 158h39c140 0 175 -157 175 -157zM197 212c50 0 77 41 77 76s-27 76 -77 76s-77 -41 -77 -76s27 -76 77 -76z"/>
    <glyph glyph-name="uniF11C" unicode="" d="M419 448c51 0 93 -41 93 -92v-323c0 -51 -42 -92 -93 -92h-98v170h51s5 30 7 63h-58v43c0 6 9 15 17 15h41v66h-56c-80 0 -78 -63 -78 -72v-52h-37v-63h37v-170h-152c-51 0 -93 41 -93 92v323c0 51 42 92 93 92h326z"/>
    <glyph glyph-name="uniF11E" unicode="" d="M512 14v-78h-512v76c1 3 2 7 2 10c4 33 20 56 51 68c15 6 31 9 47 14c18 6 37 11 55 18c13 5 15 12 9 24c-3 5 -6 11 -9 16c-24 49 -42 99 -39 155c3 63 42 111 102 126c30 7 53 4 62 3c49 -8 86 -33 105 -80c15 -35 13 -71 6 -108c-8 -39 -23 -75 -41 -110 c-8 -15 -6 -21 9 -27c12 -5 25 -9 37 -13c21 -6 43 -10 63 -18c28 -10 44 -31 50 -60c1 -5 2 -11 3 -16zM461 -13v26c-1 20 -11 30 -30 35c-14 3 -29 6 -43 10c-24 6 -47 13 -67 28s-29 35 -24 60c2 10 5 20 10 29c18 36 33 73 38 113c8 61 -22 103 -78 109 c-44 5 -91 -15 -100 -74c-4 -24 -2 -48 6 -71c10 -28 22 -55 35 -82c19 -39 9 -72 -30 -92c-15 -7 -31 -13 -47 -18c-18 -5 -37 -9 -55 -14c-12 -3 -21 -10 -23 -22s-3 -24 -4 -37h412z"/>
    <glyph glyph-name="uniF109" unicode="" horiz-adv-x="506" d="M6 277c-2 2 -3 4 -4 6s-2 4 -2 7v71c0 3 1 6 2 8s2 4 4 6s4 3 6 4s4 1 7 1h6c3 0 5 0 7 -1s5 -2 7 -4s3 -4 4 -6s1 -5 1 -8v-71c0 -3 0 -5 -1 -7s-2 -4 -4 -6s-5 -3 -7 -4s-4 -2 -7 -2h-6c-3 0 -5 1 -7 2s-4 2 -6 4zM17 361v-70c0 -1 1 -2 2 -3s1 -1 2 -1h2c1 0 2 0 3 1 s1 2 1 3v70c0 1 0 1 -1 2s-2 2 -3 2h-2c-1 0 -1 -1 -2 -2s-2 -1 -2 -2zM75 379c1 0 2 0 2 -1v-87c0 -1 0 -2 1 -3s2 -1 3 -1h1c1 0 2 0 3 1s1 2 1 3v87c0 1 1 1 2 1h14c1 0 2 0 2 -1v-88c0 -3 -1 -5 -2 -7s-2 -4 -4 -6s-4 -3 -6 -4s-4 -2 -7 -2h-6c-3 0 -6 1 -8 2s-4 2 -6 4 s-3 4 -4 6s-1 4 -1 7v88c0 1 0 1 1 1h14zM127 273v1v88h-12c-1 0 -1 1 -1 2v14c0 1 0 1 1 1h40c1 0 2 0 2 -1v-14c0 -1 -1 -2 -2 -2h-11v-88c0 -1 -1 -2 -2 -2h-14zM204 324c0 -1 -1 -2 -2 -2h-16v-48c0 -1 -1 -2 -2 -2h-14c-1 0 -1 1 -1 2v104c0 1 0 1 1 1h34c1 0 2 0 2 -1 v-14c0 -1 -1 -2 -2 -2h-18v-23h16c1 0 2 -1 2 -2v-13zM221 272c-1 0 -2 1 -2 2v104c0 1 1 1 2 1h13c1 0 2 0 2 -1v-104c0 -1 -1 -2 -2 -2h-13zM248 378c0 1 1 1 2 1h39c1 0 2 0 2 -1v-14c0 -1 -1 -2 -2 -2h-11v-88c0 -1 -1 -2 -2 -2h-13l-2 1v1v88h-11c-1 0 -2 1 -2 2v14z M329 274c0 -1 0 -2 -1 -2h-14l-2 1v1v88h-11c-1 0 -2 1 -2 2v14c0 1 1 1 2 1h40c1 0 1 0 1 -1v-14c0 -1 0 -2 -1 -2h-12v-88zM389 362h-18v-23h16c1 0 2 -1 2 -2v-13c0 -1 -1 -2 -2 -2h-16v-32h18c1 0 2 -1 2 -2v-14c0 -1 -1 -2 -2 -2h-33c-1 0 -2 1 -2 2v104c0 1 1 1 2 1 h33c1 0 2 0 2 -1v-14c0 -1 -1 -2 -2 -2zM446 325c-2 -3 -4 -5 -7 -7h-1l14 -44v-1s0 -1 -1 -1h-14c-1 0 -1 1 -2 1s-1 0 -1 1l-12 40v-40v0c0 -1 -1 -2 -2 -2h-13c-1 0 -2 1 -2 2v104c0 1 1 1 2 1h23c3 0 5 0 7 -1s4 -2 6 -4s4 -4 5 -6s1 -5 1 -8v-25c0 -4 -1 -7 -3 -10z M432 336v24c0 1 -1 1 -2 2s-1 2 -2 2h-6v-32h6c1 0 1 0 2 1s2 2 2 3zM489 349c0 0 -1 1 -1 2v10c0 1 0 1 -1 2s-2 2 -3 2h-1c-1 0 -2 -1 -3 -2s-1 -1 -1 -2v-14c0 -1 1 -2 1 -3s1 -2 2 -3l20 -15c2 -1 3 -3 3 -4s1 -3 1 -5v-27c0 -3 -1 -5 -2 -7s-2 -4 -4 -6s-4 -3 -6 -4 s-4 -2 -7 -2h-6c-3 0 -6 1 -8 2s-4 2 -6 4s-3 4 -4 6s-1 4 -1 7v15c0 1 1 3 2 3l14 3v0s1 0 1 -1v-19c0 -1 0 -2 1 -3s2 -1 3 -1h1c1 0 2 0 3 1s1 2 1 3v21v3s-1 2 -2 3l-20 15c-2 1 -2 3 -3 4s-1 4 -1 6v18c0 3 0 6 1 8s2 4 4 6s4 3 6 4s5 1 8 1h6c3 0 5 0 7 -1s4 -2 6 -4 s3 -4 4 -6s2 -5 2 -8v-5c0 -1 -1 -3 -2 -3l-14 -4h-1zM2 417h205c1 0 1 0 1 1v4c0 1 -1 2 -2 2h-204c-1 0 -2 -1 -2 -2v-4c0 -1 1 -1 2 -1zM299 417h205c1 0 2 0 2 1v4c0 1 -1 2 -2 2h-205c-1 0 -1 -1 -1 -2v-4c0 -1 0 -1 1 -1zM229 424c-2 0 -5 0 -7 3c-1 1 -2 3 -2 6 c0 4 4 10 5 11s5 4 11 4s11 -3 17 -10c1 2 3 5 4 6c2 2 4 4 6 4v0c1 0 2 -1 2 -1c1 -1 1 -4 1 -5s-2 -5 -3 -7c-2 -3 -5 -4 -8 -4v-1c0 -1 -2 -6 -4 -11v0c1 1 2 1 3 2s5 3 7 3h2c1 -1 0 -3 -1 -6c-2 -4 -4 -9 -3 -10v0c1 0 4 2 5 3v0c0 2 0 5 2 8c1 1 3 4 8 5c1 0 1 1 2 1 c2 0 4 -1 5 -2s2 -4 -2 -8v0c-3 -3 -5 -5 -8 -6c1 -1 1 -1 3 -1h2c3 1 5 3 7 5v0l2 1v-1c0 -1 1 -1 0 -2h-1c-1 -1 -3 -5 -7 -6c-2 -1 -3 -1 -5 -1c-1 0 -3 1 -4 1c-2 1 -2 2 -3 3c-2 -2 -6 -4 -9 -4c-1 0 -1 0 -2 1c-1 2 0 7 0 7c1 2 1 4 2 5s1 3 1 3s-1 0 -3 -2l-1 -1 c-2 -2 -4 -4 -5 -7v0v-1c-1 -3 -3 -5 -5 -5h-1c0 1 -1 2 0 4c0 1 2 4 3 7c1 2 2 5 2 6c1 2 3 10 4 13l-3 3c-1 -3 -4 -11 -5 -13c0 -1 0 -1 -1 -3c-1 -3 -2 -6 -3 -8v-1c-1 -3 -2 -4 -4 -7c-3 -4 -7 -6 -8 -6h-1c-1 0 -2 0 -2 1s1 2 2 2c4 2 4 4 5 6s7 21 8 23s2 7 3 8 c0 1 1 2 2 2c-1 1 -4 4 -10 4c-3 0 -6 -1 -7 -3c-2 -2 -2 -5 -2 -8c1 -4 5 -7 8 -7c1 0 1 0 1 -1s-1 -1 -2 -1s-2 -1 -3 -1v0zM274 421c1 0 1 1 1 1l1 -1v-2s0 -2 -1 -3l-3 -3c-1 -1 -2 -1 -3 -2c-1 4 3 8 5 10zM259 440c0 -1 -1 -3 -2 -5h1c2 0 3 3 3 4v1c0 1 1 3 0 3v0 s-1 -1 -2 -3zM183 236c1 0 3 -1 3 -2v-3c0 -1 -2 -2 -3 -2h-181c-1 0 -2 1 -2 2v3c0 1 1 2 2 2h181zM506 234v-3c0 -1 -1 -2 -2 -2h-181c-1 0 -3 1 -3 2v3c0 1 2 2 3 2h181c1 0 2 -1 2 -2zM273 220l-6 1l11 -17l-21 3v-7h-8v7l-21 -3l11 17l-6 -1l11 19l-5 -1l11 18l-6 -2 l9 14l9 -14l-6 2l11 -18l-5 1zM308 225l-5 1l7 -12l-14 2v-5h-5v5l-15 -2l8 12l-5 -1l8 13h-4l8 12l-4 -1l6 10l7 -10l-5 1l8 -12h-4zM222 226l8 -12l-15 2v-5h-5v5l-15 -2l8 12l-5 -1l9 13h-4l8 12l-5 -1l7 10l6 -10l-4 1l8 -12h-4l8 -13z"/>
    <glyph glyph-name="uniF102" unicode="" horiz-adv-x="244" d="M53 344v-73h-53v-90h53v-245h108v244h73s7 44 10 91h-83v62c0 9 12 21 24 21h59v94h-80c-114 0 -111 -91 -111 -104z"/>
    <glyph glyph-name="uniF110" unicode="" d="M347 235l-28 3l47 -75l-94 10v-30h-32v30l-94 -10l47 75l-28 -3l52 83l-24 -5l49 79l-26 -8l40 64l40 -64l-26 8l50 -79l-25 5zM479 260l33 -52l-65 7v-21h-23v21l-65 -7l33 52l-20 -2l37 57l-18 -3l35 55l-18 -5l28 44l27 -44l-18 5l35 -55l-17 3l36 -57zM120 260 l33 -52l-65 7v-21h-23v21l-65 -7l33 52l-20 -2l37 57l-18 -3l35 55l-18 -5l27 44l28 -44l-18 5l35 -55l-18 3l37 -57z"/>
    <glyph glyph-name="uniF11D" unicode="" d="M419 448c51 0 93 -41 93 -92v-323c0 -51 -42 -92 -93 -92h-326c-51 0 -93 41 -93 92v323c0 51 42 92 93 92h326zM403 246c13 10 24 23 33 37c-12 -6 -25 -9 -38 -11c14 9 24 22 29 39c-13 -8 -27 -14 -42 -17c-12 14 -29 23 -48 23c-37 0 -66 -32 -66 -71 c0 -6 1 -12 2 -17c-55 3 -104 32 -137 75c-6 -10 -9 -23 -9 -36c0 -25 12 -46 30 -59c-11 0 -21 4 -30 9v-1c0 -34 23 -63 53 -70c-6 -2 -12 -2 -18 -2c-4 0 -8 0 -12 1c8 -28 33 -49 62 -50c-23 -19 -51 -30 -82 -30c-5 0 -11 0 -16 1c29 -20 64 -32 101 -32 c122 0 188 108 188 202v9z"/>
    <glyph glyph-name="uniF117" unicode="" d="M461 365c3 0 5 -1 6 -3s2 -5 2 -9v-10h-16v10c0 4 1 7 2 9s3 3 6 3zM395 365c2 0 5 -1 6 -3s2 -4 2 -7v-52c0 -3 -1 -5 -2 -6s-3 -3 -5 -3s-3 1 -4 2s-3 1 -4 3v62l3 3s3 1 4 1zM510 403c1 -19 2 -38 2 -57s-1 -38 -2 -57c0 -24 -19 -44 -43 -44c-34 -1 -68 -2 -103 -2 s-69 1 -103 2c-24 0 -43 20 -43 44c-1 19 -2 38 -2 57s1 38 2 57c0 24 19 43 43 43c34 1 68 2 103 2s69 -1 103 -2c24 0 43 -19 43 -43zM280 280v115h21v20h-62v-20h21v-115h20zM352 280v0v99h-18v-75c-2 -2 -4 -4 -6 -5s-4 -2 -5 -2c-2 0 -2 0 -3 1s-1 3 -1 5v76h-18v-83 c0 -6 1 -10 3 -13s5 -4 9 -4c3 0 7 1 11 3s7 5 10 9v-11h18zM421 301v55c0 8 -1 14 -4 18s-7 7 -13 7c-3 0 -6 -1 -9 -3s-5 -4 -7 -7v44h-19v-135h19v8c2 -3 4 -6 7 -7s6 -2 10 -2c5 0 9 1 12 5s4 10 4 17zM488 327v26c0 9 -3 16 -7 21s-11 8 -19 8s-15 -3 -20 -8 s-7 -12 -7 -21v-45c0 -10 2 -17 7 -22s11 -9 19 -9c9 0 16 3 20 8c5 5 7 13 7 23v8h-19v-7c0 -6 -1 -10 -2 -12s-3 -2 -6 -2s-5 1 -6 3s-2 6 -2 11v18h35zM47 413h21l-24 -79v-56h-20v54l-24 81h20l14 -54h1zM94 380c7 0 13 -2 18 -7s7 -10 7 -18v-52c0 -9 -2 -15 -7 -20 s-11 -7 -19 -7s-14 2 -19 7s-7 13 -7 21v51c0 8 2 14 7 19s12 6 20 6zM101 302v54c0 2 -1 4 -2 5s-4 2 -6 2s-5 -1 -6 -2s-2 -3 -2 -5v-54c0 -3 1 -5 2 -7c1 -1 4 -2 6 -2s5 0 6 2s2 4 2 7zM168 302v0v76h18v-100h-18v11c-3 -4 -7 -7 -11 -9s-7 -3 -10 -3c-4 0 -7 2 -9 5 s-4 7 -4 13v83h18v-76c0 -2 0 -4 1 -5s2 -2 4 -2c1 0 3 1 5 2s4 3 6 5z"/>
    <glyph glyph-name="uniF116" unicode="" d="M75 446l56 -56v-20l-53 -53h-21l-55 56c-7 -31 2 -66 26 -90c26 -26 62 -33 95 -24l199 -200c-9 -33 -1 -69 25 -95c24 -24 58 -33 89 -26l-55 55v21l53 53h20l55 -56c7 31 -2 66 -26 90c-25 25 -60 33 -92 25l-201 201c8 32 -1 68 -26 93c-24 24 -58 33 -89 26z"/>
    <glyph glyph-name="uniF124" unicode="" horiz-adv-x="341" d="M67 -64l-67 63l208 193l-208 193l67 63l274 -256z"/>
    <glyph glyph-name="uniF118" unicode="" d="M511 173c4 -4 0 -14 -6 -20l-2 -2c-8 -9 -29 -32 -59 -43c-16 -6 -29 -9 -42 -9c-10 0 -18 2 -26 5c-15 6 -24 20 -28 29c-14 -13 -43 -38 -67 -34c-8 1 -14 6 -18 12c-11 18 -1 48 -1 48c5 14 12 29 17 40c5 10 11 22 10 24c-1 0 -9 0 -25 -16l-5 -5 c-15 -15 -31 -30 -41 -57v-2c-1 -2 -2 -3 -2 -4c-8 -27 -22 -41 -42 -40c-2 0 -4 1 -5 3c-3 5 -2 14 3 29c4 11 12 33 19 55c6 18 12 37 15 47c6 19 26 75 36 101c-6 7 -19 22 -27 30c-8 -23 -32 -89 -37 -103c-2 -6 -6 -18 -10 -31c-7 -21 -16 -45 -21 -61l-2 -5 c-7 -22 -11 -34 -29 -60c-23 -32 -57 -41 -65 -42h-6c-10 0 -16 2 -16 7c0 6 6 9 12 11c29 12 39 33 45 47c7 15 60 172 64 187s18 56 23 66c3 5 8 10 13 12c-6 7 -34 35 -82 31c-21 -2 -38 -9 -49 -23c-13 -16 -19 -40 -16 -63c4 -35 32 -51 57 -52c7 0 12 -5 12 -10 c0 -6 -4 -10 -13 -13c-7 -2 -13 -4 -24 -4h-2c-16 0 -39 5 -54 25c-7 10 -12 26 -15 50c-4 31 23 71 35 81c10 8 40 33 90 34c48 1 85 -20 134 -79c10 17 21 34 29 44c14 18 29 34 48 34h1c5 0 9 -2 12 -6c9 -10 9 -30 8 -39c-1 -11 -7 -39 -19 -57c-14 -22 -39 -34 -65 -31 c-2 -6 -3 -9 -4 -11c-2 -6 -15 -45 -27 -83l-1 -6c8 7 18 18 25 23c10 8 39 24 57 24c6 0 11 -2 14 -6c6 -7 3 -22 -9 -44c-16 -30 -31 -77 -26 -82h2c9 0 31 20 39 27v0c-1 13 0 36 15 58c7 11 29 39 67 47c5 1 9 1 14 1c15 0 29 -5 36 -13c5 -6 18 -34 -13 -64l-1 -1 c-21 -20 -44 -35 -67 -45c5 -4 13 -9 26 -9c5 0 10 1 16 2c21 5 42 19 58 38l1 1c2 2 6 5 10 5c2 0 4 -1 6 -3zM439 219c2 10 2 14 -1 17c-2 2 -5 3 -8 3c-4 0 -8 -1 -12 -4c-19 -12 -36 -46 -32 -80c6 5 14 11 20 16c3 3 12 10 20 21c6 9 11 20 13 27zM318 407 c-1 0 -7 -2 -16 -21c-4 -8 -10 -22 -17 -40c5 -2 9 -3 14 -3c15 0 21 29 21 37c0 1 1 3 1 5c1 7 1 20 -3 21v1z"/>
    <glyph glyph-name="uniF122" unicode="" d="M512 388l-196 -196l196 -196l-60 -60l-196 196l-196 -196l-60 60l196 196l-196 196l60 60l196 -196l196 196z"/>
  </font>
</defs>
</svg>
